<svg xmlns="http://www.w3.org/2000/svg" width="860" height="720" viewBox="0 0 860 720" role="img" aria-labelledby="title desc">
  <title id="title">Ilustrasi pengiriman data ke email admin</title>
  <desc id="desc">Form berisi nama dan alamat yang dikirim ke kotak masuk admin.</desc>
  <rect width="860" height="720" fill="#eef4fb"/>
  <rect x="78" y="82" width="704" height="556" rx="26" fill="#ffffff" stroke="#d8deea" stroke-width="3"/>
  <rect x="122" y="124" width="340" height="472" rx="20" fill="#f8fafc" stroke="#d8deea" stroke-width="2"/>
  <rect x="154" y="166" width="180" height="20" rx="10" fill="#0f766e"/>
  <rect x="154" y="220" width="250" height="112" rx="14" fill="#ffffff" stroke="#d8deea" stroke-width="2"/>
  <rect x="176" y="246" width="192" height="16" rx="8" fill="#9aa6bb"/>
  <rect x="176" y="278" width="150" height="16" rx="8" fill="#c3ccda"/>
  <rect x="154" y="370" width="250" height="54" rx="14" fill="#ffffff" stroke="#d8deea" stroke-width="2"/>
  <rect x="176" y="389" width="112" height="16" rx="8" fill="#2563eb"/>
  <rect x="154" y="470" width="156" height="56" rx="16" fill="#0f766e"/>
  <rect x="508" y="190" width="226" height="162" rx="22" fill="#151922"/>
  <path d="M534 232l86 58 86-58" fill="none" stroke="#f8fafc" stroke-width="16" stroke-linecap="round" stroke-linejoin="round"/>
  <rect x="512" y="398" width="218" height="54" rx="14" fill="#eff6ff" stroke="#bfdbfe" stroke-width="2"/>
  <rect x="538" y="417" width="132" height="16" rx="8" fill="#2563eb"/>
  <rect x="512" y="482" width="218" height="54" rx="14" fill="#ecfdf5" stroke="#99f6e4" stroke-width="2"/>
  <rect x="538" y="501" width="104" height="16" rx="8" fill="#0f766e"/>
  <circle cx="704" cy="509" r="18" fill="#f59e0b"/>
  <path d="M696 509l7 7 15-20" fill="none" stroke="#ffffff" stroke-width="6" stroke-linecap="round" stroke-linejoin="round"/>
</svg>
